<svg width="140" height="50" viewBox="0 0 140 50" fill="none" xmlns="http://www.w3.org/2000/svg">
  <!-- Background shape -->
  <rect width="140" height="50" rx="10" fill="#0F1115" />

  <!-- Bar chart with TSS incorporated (larger and more prominent) -->
  <!-- T bar -->
  <rect x="30" y="10" width="14" height="5" fill="#4285F4" />
  <rect x="37" y="15" width="5" height="20" fill="#4285F4" />

  <!-- S bars (first S) -->
  <rect x="55" y="10" width="14" height="5" fill="#34A853" />
  <rect x="55" y="15" width="5" height="5" fill="#34A853" />
  <rect x="55" y="20" width="14" height="5" fill="#34A853" />
  <rect x="64" y="25" width="5" height="5" fill="#34A853" />
  <rect x="55" y="30" width="14" height="5" fill="#34A853" />

  <!-- S bars (second S) -->
  <rect x="80" y="10" width="14" height="5" fill="#FBBC05" />
  <rect x="80" y="15" width="5" height="5" fill="#FBBC05" />
  <rect x="80" y="20" width="14" height="5" fill="#FBBC05" />
  <rect x="89" y="25" width="5" height="5" fill="#FBBC05" />
  <rect x="80" y="30" width="14" height="5" fill="#FBBC05" />

  <!-- Data points (scatter plot elements) - larger for better visibility -->
  <circle cx="30" cy="10" r="2" fill="#EA4335" />
  <circle cx="44" cy="10" r="2" fill="#EA4335" />
  <circle cx="37" cy="15" r="2" fill="#EA4335" />
  <circle cx="37" cy="35" r="2" fill="#EA4335" />

  <circle cx="55" cy="10" r="2" fill="#EA4335" />
  <circle cx="69" cy="10" r="2" fill="#EA4335" />
  <circle cx="55" cy="20" r="2" fill="#EA4335" />
  <circle cx="69" cy="20" r="2" fill="#EA4335" />
  <circle cx="55" cy="30" r="2" fill="#EA4335" />
  <circle cx="69" cy="30" r="2" fill="#EA4335" />

  <circle cx="80" cy="10" r="2" fill="#EA4335" />
  <circle cx="94" cy="10" r="2" fill="#EA4335" />
  <circle cx="80" cy="20" r="2" fill="#EA4335" />
  <circle cx="94" cy="20" r="2" fill="#EA4335" />
  <circle cx="80" cy="30" r="2" fill="#EA4335" />
  <circle cx="94" cy="30" r="2" fill="#EA4335" />

  <!-- Line chart elements (new addition) -->
  <!-- Line chart for T -->
  <polyline points="25,18 30,15 37,22 44,12 49,16"
    stroke="#1A73E8" stroke-width="1.8" fill="none" />

  <!-- Line chart for first S -->
  <polyline points="50,25 55,22 62,16 69,24 74,20"
    stroke="#0F9D58" stroke-width="1.8" fill="none" />

  <!-- Line chart for second S -->
  <polyline points="75,25 80,18 87,22 94,14 99,19"
    stroke="#F4B400" stroke-width="1.8" fill="none" />

  <!-- Additional line chart elements for more data visualization -->
  <polyline points="105,30 110,25 115,28 120,22 125,26"
    stroke="#EA4335" stroke-width="1.8" fill="none" />

  <!-- Decorative elements - thicker for better visibility -->
  <rect x="20" y="40" width="100" height="1.5" fill="#FFFFFF" />
  <rect x="20" y="40" width="1.5" height="5" fill="#FFFFFF" />
  <rect x="40" y="40" width="1.5" height="3" fill="#FFFFFF" />
  <rect x="60" y="40" width="1.5" height="3" fill="#FFFFFF" />
  <rect x="80" y="40" width="1.5" height="3" fill="#FFFFFF" />
  <rect x="100" y="40" width="1.5" height="3" fill="#FFFFFF" />
  <rect x="120" y="40" width="1.5" height="5" fill="#FFFFFF" />

  <!-- Chart grid lines (more visible) -->
  <line x1="20" y1="15" x2="120" y2="15" stroke="#FFFFFF" stroke-width="0.4" stroke-opacity="0.4" />
  <line x1="20" y1="25" x2="120" y2="25" stroke="#FFFFFF" stroke-width="0.4" stroke-opacity="0.4" />
  <line x1="20" y1="35" x2="120" y2="35" stroke="#FFFFFF" stroke-width="0.4" stroke-opacity="0.4" />
</svg>
